<svg xmlns="http://www.w3.org/2000/svg" width="140" height="140" viewBox="0 0 140 140" role="img" aria-labelledby="title desc">
  <title id="title">QS-JWT square logo</title>
  <desc id="desc">A rounded square card with a certificate and security token emblem, plus the QS-JWT name.</desc>
  <defs>
    <linearGradient id="bgGrad" x1="0" y1="0" x2="1" y2="1">
      <stop offset="0%" stop-color="#F3FCFA"/>
      <stop offset="100%" stop-color="#D7F3ED"/>
    </linearGradient>
    <linearGradient id="docGrad" x1="0" y1="0" x2="0" y2="1">
      <stop offset="0%" stop-color="#16A394"/>
      <stop offset="100%" stop-color="#0B6A73"/>
    </linearGradient>
    <linearGradient id="sealGrad" x1="0" y1="0" x2="0" y2="1">
      <stop offset="0%" stop-color="#2DD4BF"/>
      <stop offset="100%" stop-color="#0F766E"/>
    </linearGradient>
  </defs>

  <rect x="4" y="4" width="132" height="132" rx="16" ry="16" fill="url(#bgGrad)"/>

  <rect x="34" y="23" width="46" height="56" rx="6" ry="6" fill="url(#docGrad)"/>
  <polygon points="68,23 80,23 80,35" fill="#0A5B63" opacity="0.35"/>
  <polygon points="68,23 80,35 68,35" fill="#D8FFF7"/>

  <rect x="42" y="40" width="24" height="3.5" rx="1.75" fill="#FFFFFF" opacity="0.95"/>
  <rect x="42" y="48" width="20" height="3.5" rx="1.75" fill="#FFFFFF" opacity="0.88"/>
  <rect x="42" y="56" width="22" height="3.5" rx="1.75" fill="#FFFFFF" opacity="0.88"/>
  <rect x="42" y="64" width="14" height="3.5" rx="1.75" fill="#FFFFFF" opacity="0.72"/>

  <polygon points="78,82 83,95 87,88 85,80" fill="#0F766E"/>
  <polygon points="87,80 89,88 95,95 95,82" fill="#14B8A6"/>
  <circle cx="86" cy="68" r="20" fill="url(#sealGrad)"/>
  <circle cx="86" cy="68" r="12.5" fill="#E9FFFA" opacity="0.95"/>

  <path d="M86 58.5C82.4 58.5 79.5 61.4 79.5 65V67H82.5V65C82.5 63.1 84.1 61.5 86 61.5C87.9 61.5 89.5 63.1 89.5 65V67H92.5V65C92.5 61.4 89.6 58.5 86 58.5Z" fill="#0F766E"/>
  <rect x="79" y="66.5" width="14" height="14" rx="3" fill="#0F766E"/>
  <circle cx="86" cy="72.25" r="2.15" fill="#E9FFFA"/>
  <rect x="85" y="73.5" width="2" height="4.5" rx="1" fill="#E9FFFA"/>

  <text x="70" y="112" text-anchor="middle" font-family="'Segoe UI', 'Helvetica Neue', Arial, sans-serif" font-size="12" font-weight="700" fill="#0B6A73">QS-JWT</text>
</svg>