<svg xmlns="http://www.w3.org/2000/svg" width="220" height="140" viewBox="0 0 220 140" role="img" aria-labelledby="title desc">
  <title id="title">QS-JWT horizontal icon logo</title>
  <desc id="desc">A horizontal icon-only QS-JWT logo using the approved square card artwork centered in a wider canvas.</desc>
  <defs>
    <linearGradient id="bgGrad" x1="0" y1="0" x2="1" y2="1">
      <stop offset="0%" stop-color="#F3FCFA"/>
      <stop offset="100%" stop-color="#D7F3ED"/>
    </linearGradient>
    <linearGradient id="docGrad" x1="0" y1="0" x2="0" y2="1">
      <stop offset="0%" stop-color="#16A394"/>
      <stop offset="100%" stop-color="#0B6A73"/>
    </linearGradient>
    <linearGradient id="sealGrad" x1="0" y1="0" x2="0" y2="1">
      <stop offset="0%" stop-color="#2DD4BF"/>
      <stop offset="100%" stop-color="#0F766E"/>
    </linearGradient>
  </defs>

  <rect x="44" y="4" width="132" height="132" rx="16" ry="16" fill="url(#bgGrad)"/>

  <rect x="74" y="31" width="46" height="56" rx="6" ry="6" fill="url(#docGrad)"/>
  <polygon points="108,31 120,31 120,43" fill="#0A5B63" opacity="0.35"/>
  <polygon points="108,31 120,43 108,43" fill="#D8FFF7"/>

  <rect x="82" y="48" width="24" height="3.5" rx="1.75" fill="#FFFFFF" opacity="0.95"/>
  <rect x="82" y="56" width="20" height="3.5" rx="1.75" fill="#FFFFFF" opacity="0.88"/>
  <rect x="82" y="64" width="22" height="3.5" rx="1.75" fill="#FFFFFF" opacity="0.88"/>
  <rect x="82" y="72" width="14" height="3.5" rx="1.75" fill="#FFFFFF" opacity="0.72"/>

  <polygon points="118,90 123,103 127,96 125,88" fill="#0F766E"/>
  <polygon points="127,88 129,96 135,103 135,90" fill="#14B8A6"/>
  <circle cx="126" cy="76" r="20" fill="url(#sealGrad)"/>
  <circle cx="126" cy="76" r="12.5" fill="#E9FFFA" opacity="0.95"/>

  <path d="M126 66.5C122.4 66.5 119.5 69.4 119.5 73V75H122.5V73C122.5 71.1 124.1 69.5 126 69.5C127.9 69.5 129.5 71.1 129.5 73V75H132.5V73C132.5 69.4 129.6 66.5 126 66.5Z" fill="#0F766E"/>
  <rect x="119" y="74.5" width="14" height="14" rx="3" fill="#0F766E"/>
  <circle cx="126" cy="80.25" r="2.15" fill="#E9FFFA"/>
  <rect x="125" y="81.5" width="2" height="4.5" rx="1" fill="#E9FFFA"/>
</svg>