<svg xmlns="http://www.w3.org/2000/svg" width="140" height="140" viewBox="0 0 140 140" role="img" aria-labelledby="title desc">
  <title id="title">QS-JWT square icon logo</title>
  <desc id="desc">A rounded square card with a certificate and security token emblem.</desc>
  <defs>
    <linearGradient id="bgGrad" x1="0" y1="0" x2="1" y2="1">
      <stop offset="0%" stop-color="#F3FCFA"/>
      <stop offset="100%" stop-color="#D7F3ED"/>
    </linearGradient>
    <linearGradient id="docGrad" x1="0" y1="0" x2="0" y2="1">
      <stop offset="0%" stop-color="#16A394"/>
      <stop offset="100%" stop-color="#0B6A73"/>
    </linearGradient>
    <linearGradient id="sealGrad" x1="0" y1="0" x2="0" y2="1">
      <stop offset="0%" stop-color="#2DD4BF"/>
      <stop offset="100%" stop-color="#0F766E"/>
    </linearGradient>
  </defs>

  <rect x="4" y="4" width="132" height="132" rx="16" ry="16" fill="url(#bgGrad)"/>

  <rect x="30" y="30" width="52" height="62" rx="7" ry="7" fill="url(#docGrad)"/>
  <polygon points="69,30 82,30 82,44" fill="#0A5B63" opacity="0.35"/>
  <polygon points="69,30 82,44 69,44" fill="#D8FFF7"/>

  <rect x="39" y="48" width="27" height="4" rx="2" fill="#FFFFFF" opacity="0.95"/>
  <rect x="39" y="58" width="23" height="4" rx="2" fill="#FFFFFF" opacity="0.88"/>
  <rect x="39" y="68" width="25" height="4" rx="2" fill="#FFFFFF" opacity="0.88"/>
  <rect x="39" y="78" width="16" height="4" rx="2" fill="#FFFFFF" opacity="0.72"/>

  <polygon points="79,96 84,110 89,102 87,93" fill="#0F766E"/>
  <polygon points="88,93 90,102 97,110 97,96" fill="#14B8A6"/>
  <circle cx="88" cy="80" r="22" fill="url(#sealGrad)"/>
  <circle cx="88" cy="80" r="13.5" fill="#E9FFFA" opacity="0.95"/>

  <path d="M88 69C84 69 80.8 72.2 80.8 76.2V78.4H84V76.2C84 74 85.8 72.2 88 72.2C90.2 72.2 92 74 92 76.2V78.4H95.2V76.2C95.2 72.2 92 69 88 69Z" fill="#0F766E"/>
  <rect x="80.2" y="77.8" width="15.6" height="15.6" rx="3.2" fill="#0F766E"/>
  <circle cx="88" cy="84.2" r="2.3" fill="#E9FFFA"/>
  <rect x="86.9" y="85.6" width="2.2" height="4.9" rx="1.1" fill="#E9FFFA"/>
</svg>